# xmcd
#
# Track frame offsets:
#	150
#	12334
#	22627
#	32540
#	46530
#	60202
#	74470
#	90612
#	103010
#	116630
#	129225
#	140265
#	152785
#	166042
#	175870
#	188467
#
# Disc length: 2667
#
# Revision: 2
# Processed by: cddbd v1.5.1PL0 Copyright (c) Steve Scherf et al.
# Submitted via: EasyCDDAExtractor 5.1.0
# Normalized: r1:DSETVAR1
#
DISCID=b20a6910
DTITLE=Various Artist - That's Country
DYEAR=1900
DGENRE=Country
TTITLE0=Johnny Cash - Folsom Prison Blues
TTITLE1=Patsy Cline - Crazy
TTITLE2=Buck Owens - I've Got A Tiger By The Tail
TTITLE3=Don williams - Lord, I Hope This Day Is Good
TTITLE4=Bobby Bare - Marie Laveau
TTITLE5=The Carter Family - Wildwood Flower
TTITLE6=Willie Nelson - Georgia On My Mind
TTITLE7=Glen Campbell - By The Time I Get To Phoenix
TTITLE8=Kitty Wells - Makin' Believe
TTITLE9=Bill Monroe and His Blue Grass Boys - Kentucky Waltz
TTITLE10=Roger Miller - King Of The Road
TTITLE11=Gene Autry - Back In The Saddle Again
TTITLE12=Kenny Rogers - Ruby, Don't Take Your Love To Town
TTITLE13=Hank Locklin - Please Help Me, I'm Falling
TTITLE14=Charlie Walker - Funny How time Slips Away
TTITLE15=Dolly Parton - Letter To Heaven
EXTD=
EXTT0=
EXTT1=
EXTT2=
EXTT3=
EXTT4=
EXTT5=
EXTT6=
EXTT7=
EXTT8=
EXTT9=
EXTT10=
EXTT11=
EXTT12=
EXTT13=
EXTT14=
EXTT15=
PLAYORDER=
